{"title":"Frozen.2013.WEBRip.XviD.AC3-TODE","uid":9665011,"size":732007140,"categoryP":"video","categoryS":"movies","magnet":"?xt=urn:btih:67462a6b76f2f262c5c2111a868b8ec32a368148&amp;dn=Frozen.2013.WEBRip.XviD.AC3-TODE&amp;tr=udp%3A%2F%2Ftracker.openbittorrent.com%3A80&amp;tr=udp%3A%2F%2Fopen.demonii.com%3A1337&amp;tr=udp%3A%2F%2Ftracker.coppersurfer.tk%3A6969&amp;tr=udp%3A%2F%2Fexodus.desync.com%3A6969","seeders":4,"leechers":0,"uploader":"xxxlavalxxx","files":-1,"time":1393362133,"description":" &lt;a href=&quot;\nhttp://www.imdb.com/title/tt2294629/&quot; rel=&quot;nofollow&quot; target=&quot;_NEW&quot;&gt;\nhttp://www.imdb.com/title/tt2294629/&lt;/a&gt;\n\n\n\nAnna, a fearless optimist, sets off on an epic journey - teaming up with rugged mountain man Kristoff and his loyal reindeer Sven - to find her sister Elsa, whose icy powers have trapped the kingdom of Arendelle in eternal winter. Encountering Everest-like conditions, mystical trolls and a hilarious snowman named Olaf, Anna and Kristoff battle the elements in a race to save the kingdom. From the outside Anna's sister, Elsa looks poised, regal and reserved, but in reality, she lives in fear as she wrestles with a mighty secret-she was born with the power to create ice and snow. It's a beautiful ability, but also extremely dangerous. Haunted by the moment her magic nearly killed her younger sister Anna, Elsa has isolated herself, spending every waking minute trying to suppress her growing powers. Her mounting emotions trigger the magic, accidentally setting off an eternal winter that she can't stop. She fears she's becoming a monster and that no one, not even her sister, can help her.\n\nDirectors: Chris Buck, Jennifer Lee\nWriters: Jennifer Lee (screenplay), Hans Christian Andersen (inspired by the story &quot;The Snow Queen&quot; by)\nStars: Kristen Bell, Josh Gad, Idina Menzel\nGenres: Animation | Adventure | Comedy | Family | Fantasy | Musical\nCountry: USA\nLanguage: English\n\n\nThanks : WEB-DL PublicHD\n\nFormat                                   : AVI\nFormat/Info                              : Audio Video Interleave\nFile size                                : 698 MiB\nDuration                                 : 1h 42mn\nOverall bit rate                         : 955 Kbps\n\nVideo\nID                                       : 0\nFormat                                   : MPEG-4 Visual\nFormat profile                           : Advanced Simple@L5\nFormat settings, BVOP                    : 2\nFormat settings, QPel                    : No\nFormat settings, GMC                     : No warppoints\nFormat settings, Matrix                  : Default (H.263)\nCodec ID                                 : XVID\nCodec ID/Hint                            : XviD\nDuration                                 : 1h 42mn\nBit rate                                 : 563 Kbps\nWidth                                    : 720 pixels\nHeight                                   : 320 pixels\nDisplay aspect ratio                     : 2.25:1\nFrame rate                               : 23.976 fps\nColor space                              : YUV\nChroma subsampling                       : 4:2:0\nBit depth                                : 8 bits\nScan type                                : Progressive\nCompression mode                         : Lossy\nBits/(Pixel*Frame)                       : 0.102\nStream size                              : 412 MiB (59%)\nWriting library                          : XviD 1.2.1 (UTC 2008-12-04)\n\nAudio\nID                                       : 1\nFormat                                   : AC-3\nFormat/Info                              : Audio Coding 3\nMode extension                           : CM (complete main)\nFormat settings, Endianness              : Big\nCodec ID                                 : 2000\nDuration                                 : 1h 42mn\nBit rate mode                            : Constant\nBit rate                                 : 384 Kbps\nChannel(s)                               : 6 channels\nChannel positions                        : Front: L C R, Side: L R, LFE\nSampling rate                            : 48.0 KHz\nBit depth                                : 16 bits\nCompression mode                         : Lossy\nStream size                              : 281 MiB (40%)\nAlignment                                : Aligned on interleaves\nInterleave, duration                     : 64 ms (1.53 video frames)\nInterleave, preload duration             : 192 ms\nTitle                                    : T2_Audio - English\n\n\n\nscreens\n &lt;a href=&quot;\nhttp://i.imgur.com/NF8Cq9u.jpg&quot; rel=&quot;nofollow&quot; target=&quot;_NEW&quot;&gt;\nhttp://i.imgur.com/NF8Cq9u.jpg&lt;/a&gt; &lt;a href=&quot;\nhttp://i.imgur.com/gJ3a3kw.jpg&quot; rel=&quot;nofollow&quot; target=&quot;_NEW&quot;&gt;\nhttp://i.imgur.com/gJ3a3kw.jpg&lt;/a&gt; &lt;a href=&quot;\nhttp://i.imgur.com/hwgxenO.jpg&quot; rel=&quot;nofollow&quot; target=&quot;_NEW&quot;&gt;\nhttp://i.imgur.com/hwgxenO.jpg&lt;/a&gt; &lt;a href=&quot;\nhttp://i.imgur.com/1ysBDdD.jpg&quot; rel=&quot;nofollow&quot; target=&quot;_NEW&quot;&gt;\nhttp://i.imgur.com/1ysBDdD.jpg&lt;/a&gt; &lt;a href=&quot;\nhttp://i.imgur.com/cKuu9Q6.jpg&quot; rel=&quot;nofollow&quot; target=&quot;_NEW&quot;&gt;\nhttp://i.imgur.com/cKuu9Q6.jpg&lt;/a&gt; &lt;a href=&quot;\nhttp://i.imgur.com/dPTPSPX.jpg&quot; rel=&quot;nofollow&quot; target=&quot;_NEW&quot;&gt;\nhttp://i.imgur.com/dPTPSPX.jpg&lt;/a&gt; &lt;a href=&quot;\nhttp://i.imgur.com/gnRGZIX.jpg&quot; rel=&quot;nofollow&quot; target=&quot;_NEW&quot;&gt;\nhttp://i.imgur.com/gnRGZIX.jpg&lt;/a&gt; &lt;a href=&quot;\nhttp://i.imgur.com/QcVaDpy.jpg&quot; rel=&quot;nofollow&quot; target=&quot;_NEW&quot;&gt;\nhttp://i.imgur.com/QcVaDpy.jpg&lt;/a&gt;","torrent":{"xt":"urn:btih:67462a6b76f2f262c5c2111a868b8ec32a368148","amp;dn":"Frozen.2013.WEBRip.XviD.AC3-TODE","amp;tr":["udp%3A%2F%2Ftracker.openbittorrent.com%3A80","udp%3A%2F%2Fopen.demonii.com%3A1337","udp%3A%2F%2Ftracker.coppersurfer.tk%3A6969","udp%3A%2F%2Fexodus.desync.com%3A6969"],"infoHash":"67462a6b76f2f262c5c2111a868b8ec32a368148","infoHashBuffer":{"type":"Buffer","data":[103,70,42,107,118,242,242,98,197,194,17,26,134,139,142,195,42,54,129,72]},"announce":[],"urlList":[]}}